<?xml version="1.0" standalone="no"?>
<!DOCTYPE svg PUBLIC "-//W3C//DTD SVG 20010904//EN"
 "http://www.w3.org/TR/2001/REC-SVG-20010904/DTD/svg10.dtd">
<svg version="1.0" xmlns="http://www.w3.org/2000/svg"
 width="8px" height="8px" viewBox="0 0 1280.000000 1280.000000"
 preserveAspectRatio="xMidYMid meet">
<g transform="translate(0.000000,1280.000000) scale(0.100000,-0.100000)"
fill="white" stroke="none">
<path d="M6150 12790 c-41 -5 -147 -13 -235 -20 -1963 -142 -3768 -1206 -4858
-2865 -590 -898 -950 -1955 -1027 -3015 -6 -85 -15 -199 -21 -253 -12 -125
-12 -349 0 -474 6 -54 15 -168 21 -253 117 -1619 880 -3169 2095 -4259 1058
-949 2393 -1520 3785 -1621 85 -6 199 -15 253 -21 125 -12 349 -12 474 0 54 6
168 15 253 21 1726 125 3353 975 4461 2330 821 1004 1326 2268 1419 3550 6 85
15 199 21 253 5 54 9 160 9 237 0 77 -4 183 -9 237 -6 54 -15 168 -21 253
-132 1827 -1075 3535 -2560 4640 -963 717 -2135 1154 -3320 1240 -85 6 -199
15 -253 21 -113 10 -377 10 -487 -1z"/>
</g>
</svg>
